<svg width="24" height="23" viewBox="0 0 24 23" fill="none" xmlns="http://www.w3.org/2000/svg">
<g filter="url(#filter0_d_2151_1891)">
<path d="M8 10.2C8 9.07989 8 8.51984 8.21799 8.09202C8.40973 7.71569 8.71569 7.40973 9.09202 7.21799C9.51984 7 10.0799 7 11.2 7H18.8C19.9201 7 20.4802 7 20.908 7.21799C21.2843 7.40973 21.5903 7.71569 21.782 8.09202C22 8.51984 22 9.07989 22 10.2V17.8C22 18.9201 22 19.4802 21.782 19.908C21.5903 20.2843 21.2843 20.5903 20.908 20.782C20.4802 21 19.9201 21 18.8 21H11.2C10.0799 21 9.51984 21 9.09202 20.782C8.71569 20.5903 8.40973 20.2843 8.21799 19.908C8 19.4802 8 18.9201 8 17.8V10.2Z" fill="#D9D9D9"/>
<path d="M16 7V4.2C16 3.0799 16 2.51984 15.782 2.09202C15.5903 1.71569 15.2843 1.40973 14.908 1.21799C14.4802 1 13.9201 1 12.8 1H5.2C4.0799 1 3.51984 1 3.09202 1.21799C2.71569 1.40973 2.40973 1.71569 2.21799 2.09202C2 2.51984 2 3.0799 2 4.2V11.8C2 12.9201 2 13.4802 2.21799 13.908C2.40973 14.2843 2.71569 14.5903 3.09202 14.782C3.51984 15 4.0799 15 5.2 15H8M11.2 21H18.8C19.9201 21 20.4802 21 20.908 20.782C21.2843 20.5903 21.5903 20.2843 21.782 19.908C22 19.4802 22 18.9201 22 17.8V10.2C22 9.07989 22 8.51984 21.782 8.09202C21.5903 7.71569 21.2843 7.40973 20.908 7.21799C20.4802 7 19.9201 7 18.8 7H11.2C10.0799 7 9.51984 7 9.09202 7.21799C8.71569 7.40973 8.40973 7.71569 8.21799 8.09202C8 8.51984 8 9.07989 8 10.2V17.8C8 18.9201 8 19.4802 8.21799 19.908C8.40973 20.2843 8.71569 20.5903 9.09202 20.782C9.51984 21 10.0799 21 11.2 21Z" stroke="black" stroke-width="2" stroke-linecap="round" stroke-linejoin="round"/>
</g>
<defs>
<filter id="filter0_d_2151_1891" x="-3" y="0" width="30" height="30" filterUnits="userSpaceOnUse" color-interpolation-filters="sRGB">
<feFlood flood-opacity="0" result="BackgroundImageFix"/>
<feColorMatrix in="SourceAlpha" type="matrix" values="0 0 0 0 0 0 0 0 0 0 0 0 0 0 0 0 0 0 127 0" result="hardAlpha"/>
<feOffset dy="4"/>
<feGaussianBlur stdDeviation="2"/>
<feComposite in2="hardAlpha" operator="out"/>
<feColorMatrix type="matrix" values="0 0 0 0 0 0 0 0 0 0 0 0 0 0 0 0 0 0 0.25 0"/>
<feBlend mode="normal" in2="BackgroundImageFix" result="effect1_dropShadow_2151_1891"/>
<feBlend mode="normal" in="SourceGraphic" in2="effect1_dropShadow_2151_1891" result="shape"/>
</filter>
</defs>
</svg>
