<svg width="46" height="32" viewBox="0 0 46 32" fill="none" xmlns="http://www.w3.org/2000/svg">
<path d="M6.5 18C6.5 8.33502 14.335 0.5 24 0.5C33.665 0.5 41.5 8.33502 41.5 18V30.5H6.5V18Z" fill="#6B62E7" stroke="black"/>
<path d="M9.5 18C9.5 9.99187 15.9919 3.5 24 3.5C32.0081 3.5 38.5 9.99187 38.5 18V30.5H9.5V18Z" fill="#F2CFD6" stroke="black"/>
<path d="M12.5 18C12.5 11.6487 17.6487 6.5 24 6.5C30.3513 6.5 35.5 11.6487 35.5 18V30.5H12.5V18Z" fill="#F7EEB5" stroke="black"/>
<path d="M15.5 18C15.5 13.3056 19.3056 9.5 24 9.5C28.6944 9.5 32.5 13.3056 32.5 18V30.5H15.5V18Z" fill="white" stroke="black"/>
<line x1="16" y1="30.5" x2="32" y2="30.5" stroke="white"/>
<path d="M20.2702 30.5836H1.27015C0.267578 30.5 2.27015 27.7503 3.77015 27.5836C4.17015 25.1836 6.27015 25.5836 7.27015 26.0836C10.8701 22.0836 13.4368 24.7503 14.2701 26.5836C16.6701 25.7836 17.6035 27.5836 17.7702 28.5836C20.1702 28.1836 20.4368 29.7503 20.2702 30.5836Z" fill="white" stroke="black"/>
<path d="M45.2702 30.5836H26.2701C25.2676 30.5 27.2701 27.7503 28.7701 27.5836C29.1701 25.1836 31.2701 25.5836 32.2701 26.0836C35.8701 22.0836 38.4368 24.7503 39.2701 26.5836C41.6701 25.7836 42.6035 27.5836 42.7702 28.5836C45.1702 28.1836 45.4368 29.7503 45.2702 30.5836Z" fill="white" stroke="black"/>
</svg>
