<svg width="34" height="34" viewBox="0 0 34 34" fill="none" xmlns="http://www.w3.org/2000/svg">
<path d="M32.9375 32.9375L28.475 25.5H5.525L1.0625 32.9375H32.9375Z" fill="#F06423"/>
<path d="M17 6.375L10.625 17H23.375L17 6.375Z" fill="#4182C3"/>
<path d="M10.6249 17L5.5249 25.5H28.4749L23.3749 17H10.6249Z" fill="#A5C3DC"/>
<path d="M17 6.375L10.625 17H20.4L17 6.375Z" fill="#23AAE6"/>
<path d="M10.6249 17L5.5249 25.5H23.1199L20.3999 17H10.6249Z" fill="#D7E6F0"/>
<path d="M5.525 25.5L1.0625 32.9375H25.5L23.12 25.5H5.525Z" fill="#FAA019"/>
<path d="M17 14.3438C20.5208 14.3438 23.375 11.4896 23.375 7.96875C23.375 4.44793 20.5208 1.59375 17 1.59375C13.4792 1.59375 10.625 4.44793 10.625 7.96875C10.625 11.4896 13.4792 14.3438 17 14.3438Z" fill="#F06423"/>
<path d="M11.1562 8.5C10.8629 8.5 10.625 8.26213 10.625 7.96875C10.625 4.45354 13.4848 1.59375 17 1.59375C17.2934 1.59375 17.5312 1.83162 17.5312 2.125C17.5312 2.41838 17.2934 2.65625 17 2.65625C14.0707 2.65625 11.6875 5.03944 11.6875 7.96875C11.6875 8.26213 11.4496 8.5 11.1562 8.5Z" fill="#FAA019"/>
<path d="M17 13.2812C19.934 13.2812 22.3125 10.9028 22.3125 7.96875C22.3125 5.03474 19.934 2.65625 17 2.65625C14.066 2.65625 11.6875 5.03474 11.6875 7.96875C11.6875 10.9028 14.066 13.2812 17 13.2812Z" fill="#D7E6F0"/>
<path d="M18.0625 10.0938H15.9375C15.0573 10.0938 14.3438 9.38021 14.3438 8.5V5.3125C14.3438 4.43229 15.0573 3.71875 15.9375 3.71875H18.0625C18.9427 3.71875 19.6562 4.43229 19.6562 5.3125V8.5C19.6562 9.38021 18.9427 10.0938 18.0625 10.0938Z" fill="#FAB991"/>
<path d="M15.9375 10.0938H18.0625V11.1562H15.9375V10.0938Z" fill="#F0915A"/>
<path d="M14.875 11.1562C14.2478 11.1562 13.663 11.3375 13.1699 11.6502C14.1365 12.6556 15.4951 13.2812 17 13.2812C18.5048 13.2812 19.8634 12.6556 20.83 11.6502C20.3369 11.3375 19.7521 11.1562 19.125 11.1562H14.875Z" fill="#FAA019"/>
<path d="M18.0625 3.71875H15.9375C15.0573 3.71875 14.3438 4.43229 14.3438 5.3125V6.90625C14.6371 6.90625 14.875 6.66838 14.875 6.375V5.84375C14.875 5.55037 15.1129 5.3125 15.4062 5.3125H18.5938C18.8871 5.3125 19.125 5.55037 19.125 5.84375V6.375C19.125 6.66838 19.3629 6.90625 19.6562 6.90625V5.3125C19.6562 4.43229 18.9427 3.71875 18.0625 3.71875Z" fill="#463C4B"/>
<path d="M19.6562 7.96875V6.375C19.9496 6.375 20.1875 6.61287 20.1875 6.90625V7.4375C20.1875 7.73088 19.9496 7.96875 19.6562 7.96875Z" fill="#F0915A"/>
<path d="M14.3438 7.96875V6.375C14.0504 6.375 13.8125 6.61287 13.8125 6.90625V7.4375C13.8125 7.73088 14.0504 7.96875 14.3438 7.96875Z" fill="#F0915A"/>
<path d="M27.625 9.03125H25.5C24.9132 9.03125 24.4375 8.55558 24.4375 7.96875C24.4375 7.38192 24.9132 6.90625 25.5 6.90625H27.625C28.2118 6.90625 28.6875 7.38192 28.6875 7.96875C28.6875 8.55558 28.2118 9.03125 27.625 9.03125Z" fill="#FAA019"/>
<path d="M24.9687 4.78125C24.6968 4.78125 24.4249 4.67746 24.2175 4.47C23.8025 4.0551 23.8025 3.38234 24.2175 2.96743L25.8112 1.37368C26.2261 0.958773 26.8989 0.958773 27.3138 1.37368C27.7288 1.78859 27.7288 2.46135 27.3138 2.87625L25.7201 4.47C25.5125 4.67752 25.2407 4.78125 24.9687 4.78125Z" fill="#FAA019"/>
<path d="M26.5625 14.875C26.2905 14.875 26.0187 14.7712 25.8112 14.5638L24.2175 12.97C23.8025 12.5551 23.8025 11.8823 24.2175 11.4674C24.6324 11.0525 25.3051 11.0525 25.7201 11.4674L27.3138 13.0612C27.7288 13.4761 27.7288 14.1488 27.3138 14.5638C27.1063 14.7713 26.8344 14.875 26.5625 14.875Z" fill="#FAA019"/>
<path d="M8.5 9.03125H6.375C5.78823 9.03125 5.3125 8.55558 5.3125 7.96875C5.3125 7.38192 5.78823 6.90625 6.375 6.90625H8.5C9.08677 6.90625 9.5625 7.38192 9.5625 7.96875C9.5625 8.55558 9.08677 9.03125 8.5 9.03125Z" fill="#FAA019"/>
<path d="M9.03123 4.78125C8.7593 4.78125 8.48743 4.67746 8.27998 4.47L6.68623 2.87625C6.27126 2.46135 6.27126 1.78859 6.68623 1.37368C7.10114 0.958773 7.7739 0.958773 8.1888 1.37368L9.78255 2.96743C10.1975 3.38234 10.1975 4.0551 9.78255 4.47C9.57503 4.67752 9.30317 4.78125 9.03123 4.78125Z" fill="#FAA019"/>
<path d="M7.43748 14.875C7.16555 14.875 6.89368 14.7712 6.68623 14.5638C6.27126 14.1488 6.27126 13.4761 6.68623 13.0612L8.27998 11.4674C8.69489 11.0525 9.36765 11.0525 9.78255 11.4674C10.1975 11.8823 10.1975 12.5551 9.78255 12.97L8.1888 14.5638C7.98128 14.7713 7.70942 14.875 7.43748 14.875Z" fill="#FAA019"/>
</svg>
