<svg width="32" height="39" viewBox="0 0 32 39" fill="none" xmlns="http://www.w3.org/2000/svg">
<g filter="url(#filter0_d_1883_10434)">
<path d="M26.6667 6.66699C26.6667 8.87613 21.8911 10.667 16 10.667C10.109 10.667 5.33337 8.87613 5.33337 6.66699M26.6667 6.66699C26.6667 4.45785 21.8911 2.66699 16 2.66699C10.109 2.66699 5.33337 4.45785 5.33337 6.66699M26.6667 6.66699V25.3337C26.6667 27.5428 21.8911 29.3337 16 29.3337C10.109 29.3337 5.33337 27.5428 5.33337 25.3337V6.66699M26.6667 12.8891C26.6667 15.0983 21.8911 16.8891 16 16.8891C10.109 16.8891 5.33337 15.0983 5.33337 12.8891M26.6667 19.107C26.6667 21.3161 21.8911 23.107 16 23.107C10.109 23.107 5.33337 21.3161 5.33337 19.107" stroke="#1872F6" stroke-width="2" stroke-linecap="round" stroke-linejoin="round"/>
</g>
<defs>
<filter id="filter0_d_1883_10434" x="-4" y="0" width="40" height="40" filterUnits="userSpaceOnUse" color-interpolation-filters="sRGB">
<feFlood flood-opacity="0" result="BackgroundImageFix"/>
<feColorMatrix in="SourceAlpha" type="matrix" values="0 0 0 0 0 0 0 0 0 0 0 0 0 0 0 0 0 0 127 0" result="hardAlpha"/>
<feOffset dy="4"/>
<feGaussianBlur stdDeviation="2"/>
<feComposite in2="hardAlpha" operator="out"/>
<feColorMatrix type="matrix" values="0 0 0 0 0 0 0 0 0 0 0 0 0 0 0 0 0 0 0.25 0"/>
<feBlend mode="normal" in2="BackgroundImageFix" result="effect1_dropShadow_1883_10434"/>
<feBlend mode="normal" in="SourceGraphic" in2="effect1_dropShadow_1883_10434" result="shape"/>
</filter>
</defs>
</svg>
