<svg width="18" height="18" viewBox="0 0 18 18" fill="none" xmlns="http://www.w3.org/2000/svg">
<path d="M15 3.75C15 4.99264 12.3137 6 9 6C5.68629 6 3 4.99264 3 3.75M15 3.75C15 2.50736 12.3137 1.5 9 1.5C5.68629 1.5 3 2.50736 3 3.75M15 3.75V14.25C15 15.4926 12.3137 16.5 9 16.5C5.68629 16.5 3 15.4926 3 14.25V3.75M15 7.24995C15 8.49259 12.3137 9.49995 9 9.49995C5.68629 9.49995 3 8.49259 3 7.24995M15 10.7475C15 11.9901 12.3137 12.9975 9 12.9975C5.68629 12.9975 3 11.9901 3 10.7475" stroke="#FE7B1E" stroke-width="1.5" stroke-linecap="round" stroke-linejoin="round"/>
</svg>
