<svg width="24" height="24" viewBox="0 0 24 24" fill="none" xmlns="http://www.w3.org/2000/svg">
<path d="M16.75 19.8289C18.4424 19.3729 20.2888 18.1054 21.2778 17.3576C21.7446 17.0047 22 16.448 22 15.8628V6.19338C22 5.33993 20.9721 4.84502 20.2637 5.32104C19.2635 5.99317 17.9669 6.74064 16.75 7.06853V19.8289Z" fill="#898989"/>
<path d="M12 18.3799C11.014 17.6299 10.0281 16.8798 8.75 16.773V4.0127C10.0281 4.11948 11.014 4.86952 12 5.61957C12.986 6.36961 13.9719 7.11966 15.25 7.22644V19.9868C13.9719 19.88 12.9859 19.13 12 18.3799Z" fill="#898989"/>
<path d="M2.72215 6.64215C3.71116 5.89434 5.55765 4.6269 7.25 4.1709V16.9313C6.03308 17.2591 4.73646 18.0066 3.73627 18.6787C3.0279 19.1548 2 18.6599 2 17.8064V8.13699C2 7.5518 2.25538 6.99509 2.72215 6.64215Z" fill="#898989"/>
</svg>
