<svg width="21" height="20" viewBox="0 0 21 20" fill="none" xmlns="http://www.w3.org/2000/svg">
<path d="M15.1519 0.0205975C14.9172 0.0461082 14.7004 0.0920258 14.6698 0.122639C14.6545 0.137945 14.6188 0.148148 14.5881 0.148148C14.5575 0.148148 14.5269 0.155802 14.5218 0.166006C14.5193 0.178761 14.4631 0.211924 14.3994 0.245087C14.1927 0.349678 14.032 0.464474 13.8662 0.632841C13.7667 0.729778 13.5575 0.997635 13.5575 1.0257C13.5575 1.03335 13.532 1.08437 13.4989 1.13794C13.4657 1.18896 13.4172 1.2961 13.3917 1.37263C13.3688 1.44916 13.3331 1.541 13.3177 1.57672C13.2795 1.666 13.2642 17.2527 13.3024 17.4185C13.3177 17.4823 13.3382 17.5613 13.3458 17.5971C13.3586 17.6608 13.4121 17.8011 13.4529 17.8777C13.7055 18.3573 13.9785 18.6379 14.3994 18.8522C14.4631 18.8853 14.5193 18.9185 14.5218 18.9287C14.5269 18.9414 14.5575 18.9491 14.5881 18.9491C14.6188 18.9491 14.6545 18.9593 14.6672 18.9721C14.6825 18.9874 14.7795 19.018 14.8841 19.0409C15.0575 19.0818 15.2999 19.0869 17.6264 19.0971C19.0295 19.1022 20.2361 19.0996 20.3075 19.0894C20.5473 19.0613 20.7259 18.8802 20.7259 18.6659C20.7259 18.592 20.6621 18.4491 20.5983 18.3828C20.4886 18.2654 20.4427 18.2603 19.1698 18.2603H17.9708V17.8522V17.444H19.1264C20.3713 17.444 20.4759 17.4338 20.5907 17.3114C20.6698 17.2246 20.7259 17.0996 20.7259 17.0103C20.7259 16.8496 20.5677 16.6481 20.4147 16.6175C20.3713 16.6098 19.805 16.6022 19.1545 16.6022H17.9708V16.194V15.7858H19.1264C19.759 15.7858 20.3254 15.7731 20.3789 15.7603C20.4351 15.7476 20.509 15.717 20.5448 15.6889C20.6366 15.6226 20.7259 15.4593 20.7259 15.3573C20.7259 15.1915 20.5703 14.9899 20.4147 14.9593C20.3713 14.9517 19.805 14.944 19.1545 14.944H17.9708V14.5359V14.1277H19.1213C20.3152 14.1277 20.4045 14.12 20.555 14.018C20.6417 13.9593 20.7259 13.7986 20.7259 13.694C20.7259 13.5231 20.5626 13.3292 20.3994 13.3012C20.3483 13.2935 19.7795 13.2859 19.1392 13.2859H17.9708V12.8777V12.4695L19.1519 12.4619C19.7999 12.4568 20.3662 12.444 20.407 12.4313C20.5805 12.3828 20.7259 12.2017 20.7259 12.0359C20.7259 11.8649 20.5626 11.6711 20.3994 11.643C20.3483 11.6354 19.7795 11.6277 19.1392 11.6277H17.9708V11.2195V10.8114L19.1519 10.8037C19.7999 10.7986 20.3662 10.7859 20.407 10.7731C20.5805 10.7246 20.7259 10.5435 20.7259 10.3777C20.7259 10.2068 20.5626 10.0129 20.3994 9.98485C20.3483 9.97719 19.7795 9.96954 19.1392 9.96954H17.9708V9.54862V9.12771H19.1392C19.7795 9.12771 20.3483 9.12005 20.3994 9.1124C20.5626 9.08434 20.7259 8.89046 20.7259 8.71955C20.7259 8.55373 20.5805 8.37261 20.407 8.32414C20.3662 8.31138 19.7999 8.29863 19.1519 8.29353L17.9708 8.28587V7.87771V7.46955H19.1392C19.7795 7.46955 20.3483 7.4619 20.3994 7.45424C20.5626 7.42618 20.7259 7.23231 20.7259 7.06139C20.7259 6.89302 20.583 6.71445 20.407 6.66598C20.3662 6.65323 19.7999 6.64047 19.1519 6.63537L17.9708 6.62772V6.21955V5.81139H19.1392C19.7795 5.81139 20.3483 5.80374 20.3994 5.79609C20.5626 5.76803 20.7259 5.57415 20.7259 5.40323C20.7259 5.29864 20.6417 5.13793 20.555 5.07925C20.4045 4.97721 20.3152 4.96956 19.1213 4.96956H17.9708V4.5614V4.15324H19.1545C19.805 4.15324 20.3713 4.14558 20.4147 4.13793C20.5703 4.10732 20.7259 3.90579 20.7259 3.73997C20.7259 3.63793 20.6366 3.47467 20.5448 3.40834C20.509 3.38028 20.4351 3.34967 20.3789 3.33691C20.3254 3.32416 19.759 3.3114 19.1264 3.3114H17.9708V2.90324V2.49508H19.1545C19.805 2.49508 20.3713 2.48742 20.4147 2.47977C20.5652 2.44916 20.7259 2.24763 20.7259 2.08947C20.7259 1.99508 20.6545 1.83437 20.5856 1.77569C20.4555 1.66345 20.3458 1.65324 19.1264 1.65324H17.9708V1.24508V0.836922H19.1698C20.1927 0.836922 20.384 0.83182 20.4631 0.798656C20.5728 0.752737 20.6238 0.704269 20.6825 0.584372C20.7973 0.35478 20.6493 0.0818214 20.3764 0.0180473C20.2616 -0.00746346 15.4096 -0.00491142 15.1519 0.0205975ZM17.129 9.54862V18.2603H16.157C15.1009 18.2603 15.0422 18.2552 14.7591 18.1124C14.5091 17.9874 14.1698 17.5894 14.1698 17.421C14.1698 17.3955 14.1545 17.3675 14.1392 17.3598C14.1137 17.3522 14.106 15.768 14.106 9.54862C14.106 3.32926 14.1137 1.74508 14.1392 1.73488C14.1545 1.72977 14.1698 1.70171 14.1698 1.6762C14.1698 1.51294 14.5091 1.11243 14.7489 0.989983C15.0244 0.849676 15.0728 0.842024 16.1417 0.839472L17.129 0.836922V9.54862Z" fill="#666666"/>
<path d="M3.02181 1.02552C2.8611 1.08164 2.75651 1.13777 2.63406 1.2296C2.56773 1.28062 2.50651 1.32144 2.49375 1.32144C2.45804 1.32144 2.06518 1.73725 1.96059 1.88266C1.81008 2.09184 1.77692 2.15307 1.67488 2.39286C1.51672 2.76531 1.481 2.95153 1.48355 3.41327C1.48355 3.99235 1.51417 4.10714 1.91978 4.96938C1.96314 5.06122 2.03967 5.22704 2.0907 5.33928C2.20039 5.57907 2.28967 5.76785 2.43253 6.07142C2.48865 6.19387 2.53712 6.30611 2.53712 6.32142C2.53712 6.33417 2.54478 6.34693 2.55753 6.34693C2.56773 6.34693 2.60345 6.42091 2.63661 6.51274C2.67233 6.60458 2.71059 6.67856 2.72079 6.67856C2.731 6.67856 2.7412 6.69897 2.7412 6.72448C2.7412 6.74999 2.75906 6.79336 2.77947 6.82142C2.79988 6.84693 2.81773 6.8903 2.81773 6.91325C2.81773 6.93876 2.83049 6.95917 2.84324 6.95917C2.85855 6.95917 2.86875 6.97193 2.86875 6.98723C2.86875 7.00254 2.91467 7.11478 2.97334 7.23468C3.03202 7.35713 3.11365 7.5306 3.15447 7.62243C3.19783 7.71427 3.27436 7.88009 3.32794 7.99233C3.45293 8.25764 3.56008 8.48468 3.65957 8.70662C3.70548 8.80355 3.77946 8.96427 3.82793 9.06121C3.8764 9.1607 3.91467 9.25508 3.91467 9.27294C3.91467 9.2908 3.92742 9.3061 3.94018 9.3061C3.95548 9.3061 3.96569 9.31886 3.96569 9.33671C3.96569 9.36478 4.04987 9.5561 4.18507 9.82906C4.26161 9.98467 4.26161 9.98722 4.18507 10.1403C4.0065 10.5025 3.91467 10.7015 3.91467 10.7296C3.91467 10.7474 3.90446 10.7602 3.88916 10.7602C3.8764 10.7602 3.86365 10.7729 3.86365 10.7882C3.86365 10.8061 3.82028 10.9107 3.76416 11.0255C3.6111 11.3469 3.55753 11.4694 3.55753 11.4974C3.55753 11.5127 3.54732 11.5255 3.53202 11.5255C3.51926 11.5255 3.50651 11.5382 3.50651 11.5561C3.50651 11.5714 3.46824 11.6658 3.41977 11.7653C3.3713 11.8648 3.30243 12.0153 3.26416 12.0995C3.17998 12.2857 3.02692 12.6148 2.9912 12.6913C2.96824 12.7398 2.94018 12.75 2.84579 12.75C2.72335 12.75 2.37641 12.8163 2.30243 12.8546C2.27947 12.8673 2.21314 12.8852 2.15447 12.8928C2.09835 12.903 2.05243 12.9183 2.05243 12.9311C2.05243 12.9438 2.03202 12.954 2.00906 12.954C1.98355 12.9566 1.88917 12.9949 1.79733 13.0433C1.70549 13.0918 1.6009 13.1454 1.56008 13.1607C1.52182 13.176 1.49121 13.1989 1.49121 13.2117C1.49121 13.2245 1.47335 13.2347 1.45294 13.2347C1.43253 13.2347 1.41468 13.2449 1.41468 13.2551C1.41468 13.2678 1.38917 13.2882 1.35855 13.3035C1.23611 13.3597 0.889169 13.6734 0.746312 13.8546C0.700394 13.9132 0.649374 13.9719 0.631517 13.9821C0.61366 13.9923 0.598354 14.0178 0.598354 14.0382C0.598354 14.0561 0.590701 14.0765 0.577946 14.0816C0.549885 14.0918 0.394273 14.3443 0.394273 14.3775C0.394273 14.3903 0.38662 14.4081 0.376416 14.4132C0.363661 14.4158 0.3356 14.4668 0.307539 14.5229C0.282028 14.579 0.251416 14.6454 0.238661 14.6683C0.179988 14.7857 0.0728455 15.1581 0.0294783 15.3903C-0.0317459 15.7346 0.00907027 16.602 0.0907026 16.6913C0.103458 16.704 0.113662 16.7423 0.113662 16.7806C0.113662 16.8163 0.131519 16.8775 0.151927 16.9183C0.172335 16.9566 0.190192 17.0025 0.190192 17.0204C0.190192 17.0357 0.225906 17.1173 0.266722 17.2015C0.307539 17.2857 0.343253 17.3698 0.343253 17.3852C0.343253 17.403 0.356008 17.4183 0.368763 17.4183C0.384069 17.4183 0.394273 17.4311 0.394273 17.4464C0.394273 17.477 0.600905 17.7984 0.687639 17.9005C0.807537 18.0459 1.106 18.3316 1.23866 18.4311C1.49376 18.6198 1.88406 18.8367 2.05243 18.8826C2.08814 18.8928 2.13916 18.9107 2.16723 18.9209C2.27692 18.9668 2.50651 19.0255 2.57029 19.0255C2.606 19.0255 2.66722 19.0382 2.70549 19.051C2.79222 19.0841 3.5014 19.0867 3.62895 19.0535C3.67997 19.0408 3.81518 19.0101 3.92742 18.9846C4.03967 18.9617 4.14936 18.9336 4.16977 18.9209C4.19018 18.9107 4.26671 18.8826 4.33558 18.8571C4.5065 18.7984 4.82283 18.63 4.93762 18.5382C4.98864 18.4974 5.03966 18.4642 5.04732 18.4642C5.08303 18.4642 5.44783 18.1198 5.61109 17.9285C5.65446 17.88 5.74119 17.7627 5.80242 17.6709C5.86364 17.5765 5.92742 17.5051 5.94272 17.5102C5.95548 17.5178 6.01925 17.6045 6.08303 17.704C6.23099 17.9362 6.57792 18.2908 6.83558 18.4719C6.94782 18.551 7.05241 18.6249 7.06517 18.6351C7.09323 18.6556 7.35853 18.7882 7.5167 18.8571C7.56772 18.88 7.62384 18.8979 7.64425 18.8979C7.66465 18.8979 7.69016 18.9081 7.70292 18.9183C7.71823 18.9311 7.82027 18.9617 7.93251 18.9846C8.04475 19.0101 8.17741 19.0408 8.22843 19.0535C8.35853 19.0867 8.97842 19.0816 9.20036 19.0484C9.3024 19.0331 9.42995 19.0025 9.48352 18.9846C9.53454 18.9642 9.60852 18.9489 9.64169 18.9489C9.6774 18.9489 9.70546 18.9387 9.70546 18.926C9.70546 18.9132 9.75138 18.8954 9.8075 18.8851C9.86363 18.8749 9.90954 18.8571 9.90954 18.8443C9.90954 18.8316 9.92485 18.8214 9.94526 18.8214C9.97842 18.8214 10.1774 18.7219 10.3432 18.6198C10.3917 18.5892 10.4529 18.5586 10.4784 18.551C10.5014 18.5408 10.5218 18.5255 10.5218 18.5153C10.5218 18.505 10.5703 18.4642 10.6289 18.426C10.7437 18.3494 11.2106 17.8877 11.2106 17.852C11.2106 17.8392 11.2259 17.8137 11.2437 17.7959C11.2947 17.7448 11.4478 17.4974 11.5192 17.3545C11.5524 17.2831 11.5881 17.2219 11.5983 17.2142C11.606 17.2066 11.6238 17.1658 11.634 17.125C11.6442 17.0816 11.6595 17.0357 11.6697 17.0229C11.7259 16.9464 11.8254 16.4872 11.8509 16.1938C11.8789 15.8903 11.8458 15.3137 11.7947 15.2219C11.782 15.1964 11.7718 15.1505 11.7718 15.1199C11.7718 15.051 11.6187 14.6301 11.5881 14.6173C11.5779 14.6122 11.5677 14.5892 11.5677 14.5663C11.5677 14.5127 11.3942 14.2117 11.2871 14.0765C11.2463 14.0229 11.2106 13.9719 11.2106 13.9591C11.2106 13.9489 11.0983 13.829 10.9631 13.6938C10.7157 13.4515 10.3407 13.1581 10.2794 13.1581C10.259 13.1581 10.2412 13.1505 10.2361 13.1377C10.2233 13.1097 9.91465 12.9668 9.75648 12.9158C9.67995 12.8903 9.59322 12.8622 9.56516 12.852C9.45291 12.8112 9.12383 12.75 9.01669 12.75H8.90189L8.82026 12.5739C8.77434 12.477 8.73608 12.3852 8.73608 12.3699C8.73608 12.3546 8.72587 12.3418 8.71057 12.3418C8.69781 12.3418 8.68506 12.3291 8.68506 12.3112C8.68506 12.2831 8.62128 12.1403 8.45292 11.7908C8.4121 11.7066 8.37894 11.6224 8.37894 11.6071C8.37894 11.5893 8.36873 11.5765 8.35343 11.5765C8.34067 11.5765 8.32792 11.5637 8.32792 11.5459C8.32792 11.5306 8.29475 11.4464 8.25394 11.3622C8.21312 11.2755 8.14169 11.125 8.09833 11.028C8.01159 10.8393 7.9019 10.6046 7.75394 10.2908C7.60088 9.96681 7.60343 9.98212 7.68761 9.8061C7.72843 9.72192 7.79731 9.56886 7.84322 9.47192C7.98098 9.16835 8.00904 9.11478 8.02945 9.10712C8.03965 9.10202 8.04731 9.07651 8.04731 9.051C8.04731 9.02549 8.05751 8.99743 8.07026 8.98723C8.08302 8.97957 8.10088 8.93876 8.11108 8.89794C8.12128 8.85457 8.13914 8.82141 8.1519 8.82141C8.16465 8.82141 8.17486 8.80866 8.17486 8.79335C8.17486 8.77549 8.22077 8.66835 8.27435 8.55355C8.32792 8.43876 8.38149 8.31631 8.39169 8.28315C8.4019 8.24998 8.4172 8.21682 8.42741 8.20917C8.43506 8.20151 8.46057 8.1556 8.48353 8.10713C8.64679 7.76019 8.71312 7.61733 8.77434 7.48213C8.81261 7.39795 8.88149 7.24744 8.9274 7.1505C8.97332 7.05101 9.0524 6.88264 9.10342 6.77295C9.15444 6.66581 9.23608 6.49234 9.28455 6.38775C9.33302 6.28571 9.37383 6.18877 9.37383 6.17091C9.37383 6.1556 9.38659 6.14285 9.39934 6.14285C9.41465 6.14285 9.42485 6.11989 9.42485 6.09438C9.42485 6.06632 9.43506 6.03826 9.44781 6.02805C9.46057 6.0204 9.47842 5.97958 9.48863 5.93877C9.49883 5.8954 9.51669 5.86224 9.52944 5.86224C9.5422 5.86224 9.5524 5.85203 9.5524 5.83928C9.5524 5.82397 9.59832 5.71428 9.65699 5.58928C9.71312 5.46683 9.79475 5.29081 9.83811 5.19897C9.88148 5.10714 9.96056 4.93622 10.0167 4.81632C10.0728 4.69643 10.1366 4.55867 10.1595 4.5102C10.18 4.46173 10.2055 4.40306 10.2157 4.38265C10.2463 4.31888 10.3152 4.07143 10.356 3.89031C10.407 3.66327 10.407 3.16327 10.356 2.93623C10.3152 2.75256 10.2463 2.50766 10.2157 2.44388C10.1187 2.23725 9.99118 1.99746 9.95546 1.95919C9.92995 1.93113 9.90954 1.90307 9.90954 1.89286C9.90954 1.84184 9.60087 1.51276 9.4223 1.37246C9.36108 1.32399 9.3075 1.27552 9.3024 1.26532C9.2973 1.25511 9.27689 1.24491 9.25648 1.24491C9.23608 1.24491 9.22077 1.2347 9.22077 1.22195C9.22077 1.20919 9.19526 1.18879 9.16465 1.17858C9.13148 1.16838 9.10087 1.15562 9.09322 1.14542C9.07281 1.12246 8.9121 1.04848 8.80751 1.01532C8.6723 0.974501 8.51669 1.02042 8.4121 1.13266C8.36618 1.18113 8.32792 1.22705 8.32792 1.2347C8.32792 1.25001 8.13659 1.65562 8.04475 1.83674C8.00394 1.91838 7.97078 2.00256 7.97078 2.02297C7.97078 2.04338 7.96057 2.06123 7.94527 2.06123C7.93251 2.06123 7.91975 2.07399 7.91975 2.08929C7.91975 2.1046 7.88659 2.19133 7.84322 2.28317C7.80241 2.37245 7.76669 2.45919 7.76669 2.47194C7.76669 2.4847 7.75649 2.4949 7.74118 2.4949C7.72843 2.4949 7.71567 2.50766 7.71567 2.52551C7.71567 2.54082 7.68251 2.625 7.6417 2.70919C7.51925 2.97194 7.48608 3.05102 7.48608 3.07908C7.48608 3.09439 7.47588 3.10715 7.46057 3.10715C7.44782 3.10715 7.43506 3.1199 7.43506 3.13521C7.43506 3.15051 7.37894 3.28061 7.31006 3.42347C7.24374 3.56378 7.16466 3.73214 7.13659 3.79592C7.10598 3.85969 7.04221 3.99745 6.99374 4.10204C6.94527 4.20663 6.85088 4.40816 6.78711 4.54847C6.72078 4.68877 6.6519 4.83418 6.63149 4.87245C6.61109 4.90816 6.59323 4.95663 6.59323 4.97959C6.59323 5.00255 6.58303 5.0204 6.57027 5.0204C6.55752 5.0204 6.53966 5.05357 6.52945 5.09693C6.51925 5.13775 6.50139 5.17346 6.48864 5.17346C6.47588 5.17346 6.46568 5.19132 6.46568 5.21173C6.46568 5.25765 6.38405 5.43877 6.35599 5.44897C6.34578 5.45408 6.33813 5.47193 6.33813 5.48724C6.33813 5.50254 6.30241 5.58928 6.25905 5.68112C6.03201 6.16326 5.98609 6.26019 5.97078 6.30101C5.95293 6.35713 5.90446 6.36224 5.90446 6.30866C5.90446 6.28826 5.89425 6.2704 5.87895 6.2704C5.86619 6.2704 5.85344 6.25764 5.85344 6.24234C5.85344 6.22958 5.82538 6.1556 5.79221 6.08418C5.75905 6.0102 5.70803 5.89795 5.67742 5.83162C5.64936 5.7653 5.62385 5.69897 5.62385 5.68622C5.62385 5.67091 5.61364 5.65816 5.59834 5.65816C5.58558 5.65816 5.57282 5.6454 5.57282 5.63265C5.57282 5.61734 5.51415 5.48469 5.44272 5.33163C5.3713 5.18112 5.29221 5.01275 5.2667 4.95663C5.24119 4.90051 5.17487 4.7551 5.11619 4.63265C5.05752 4.5102 5.0116 4.39796 5.0116 4.38265C5.0116 4.3699 5.0014 4.35714 4.98609 4.35714C4.97334 4.35714 4.96058 4.34439 4.96058 4.32908C4.96058 4.30102 4.90701 4.17857 4.75395 3.85714C4.69783 3.74235 4.65446 3.63776 4.65446 3.6199C4.65446 3.60459 4.64426 3.59184 4.62895 3.59184C4.6162 3.59184 4.60344 3.56888 4.60344 3.54337C4.60344 3.51531 4.59324 3.48725 4.58048 3.47704C4.56773 3.46939 4.54987 3.42857 4.53967 3.38776C4.52946 3.34439 4.5116 3.31123 4.49885 3.31123C4.48609 3.31123 4.47589 3.30102 4.47589 3.28827C4.47589 3.27296 4.42997 3.16327 4.3713 3.03827C4.18252 2.63011 4.05752 2.3648 3.83814 1.89542C3.77946 1.76786 3.70804 1.61481 3.67997 1.55103C3.58304 1.33164 3.54477 1.25766 3.52691 1.25001C3.51416 1.24491 3.50651 1.22705 3.50651 1.20919C3.50651 1.15562 3.36875 1.04593 3.26416 1.01787C3.14426 0.984705 3.13916 0.984705 3.02181 1.02552ZM3.02181 2.08929C3.02181 2.10205 3.08049 2.2347 3.15192 2.38521C3.22334 2.53827 3.31518 2.7296 3.35345 2.81378C3.50396 3.13776 3.6111 3.3699 3.69783 3.55102C3.7463 3.65306 3.78712 3.75 3.78712 3.76786C3.78712 3.78316 3.79987 3.79592 3.81263 3.79592C3.82793 3.79592 3.83814 3.81633 3.83814 3.84184C3.83814 3.86735 3.85599 3.91071 3.8764 3.93878C3.89681 3.96428 3.91467 4.00765 3.91467 4.03061C3.91467 4.05612 3.92742 4.07653 3.94018 4.07653C3.95548 4.07653 3.96569 4.08673 3.96569 4.10204C3.96569 4.125 4.02436 4.2551 4.26416 4.7653C4.39681 5.04591 4.5116 5.29591 4.57793 5.44132C4.60344 5.49744 4.67742 5.65816 4.74375 5.79846C4.81007 5.93877 4.90701 6.1454 4.96058 6.25764C5.11619 6.58928 5.16466 6.69897 5.16466 6.72703C5.16466 6.74234 5.17742 6.75509 5.19017 6.75509C5.20548 6.75509 5.21568 6.76785 5.21568 6.7857C5.21568 6.80101 5.24374 6.87244 5.27691 6.94387C5.31262 7.01529 5.36874 7.14029 5.40446 7.22193L5.47078 7.36733L5.3917 7.5408C5.34834 7.63519 5.27436 7.79335 5.22589 7.89284C5.17742 7.99233 5.13915 8.08672 5.13915 8.10458C5.13915 8.11988 5.12895 8.13264 5.11364 8.13264C5.10089 8.13264 5.08813 8.15304 5.08813 8.176C5.08813 8.20151 5.07028 8.24488 5.04987 8.27039C5.02946 8.29845 5.0116 8.34182 5.0116 8.36733C5.0116 8.39284 5.0014 8.41325 4.98609 8.41325C4.97334 8.41325 4.96058 8.426 4.96058 8.44131C4.96058 8.48213 4.72079 8.97447 4.70293 8.97447C4.69273 8.97447 4.67742 8.93876 4.66722 8.89794C4.65701 8.85712 4.63915 8.82141 4.6264 8.82141C4.61364 8.82141 4.60344 8.79845 4.60344 8.77294C4.60344 8.74488 4.59324 8.71682 4.58048 8.70662C4.56773 8.69896 4.54987 8.65814 4.53967 8.61733C4.52946 8.57396 4.5116 8.5408 4.49885 8.5408C4.48609 8.5408 4.47589 8.53059 4.47589 8.51529C4.47589 8.48978 4.36875 8.25253 4.01926 7.51529C3.96314 7.39284 3.91467 7.2806 3.91467 7.26529C3.91467 7.25254 3.90446 7.23978 3.88916 7.23978C3.8764 7.23978 3.86365 7.22703 3.86365 7.21172C3.86365 7.18366 3.83048 7.10458 3.70804 6.84183C3.66722 6.75764 3.63406 6.67346 3.63406 6.65815C3.63406 6.6403 3.62385 6.62754 3.6111 6.62754C3.59834 6.62754 3.58049 6.59183 3.57028 6.55101C3.56008 6.50764 3.54222 6.47448 3.52947 6.47448C3.51671 6.47448 3.50651 6.45407 3.50651 6.42856C3.50651 6.4056 3.48865 6.36224 3.46824 6.33673C3.44783 6.30866 3.42998 6.2653 3.42998 6.23979C3.42998 6.21428 3.41977 6.19387 3.40447 6.19387C3.39171 6.19387 3.37896 6.18366 3.37896 6.16836C3.37896 6.1556 3.33559 6.04846 3.27947 5.93367C3.22589 5.81632 3.15447 5.66326 3.12385 5.59438C2.98355 5.28571 2.77437 4.83673 2.63916 4.54847C2.46314 4.18367 2.40957 4.05357 2.39171 3.97449C2.38406 3.93112 2.3662 3.89031 2.356 3.88265C2.34325 3.875 2.33304 3.82653 2.33304 3.77551C2.33304 3.72449 2.32284 3.64031 2.31008 3.58674C2.28202 3.46939 2.32029 3.06123 2.37386 2.89286C2.41212 2.77041 2.52692 2.51531 2.5958 2.40562C2.61365 2.37756 2.70039 2.27807 2.79222 2.18368C2.91467 2.05613 2.96569 2.02041 2.98865 2.04082C3.00651 2.05613 3.02181 2.07654 3.02181 2.08929ZM9.02179 2.1199C9.23097 2.31888 9.46057 2.70664 9.49373 2.91582C9.50138 2.97194 9.51924 3.03061 9.53199 3.04592C9.54475 3.06378 9.55495 3.21939 9.55495 3.39031C9.5575 3.67347 9.54985 3.72959 9.48097 3.93878C9.43761 4.06888 9.36108 4.26275 9.31006 4.37245C9.21567 4.57398 9.15955 4.69132 8.96822 5.10459C8.90955 5.22959 8.86363 5.33928 8.86363 5.35459C8.86363 5.36734 8.85343 5.37755 8.84067 5.37755C8.82792 5.37755 8.81006 5.41071 8.79985 5.45408C8.78965 5.49489 8.77179 5.53571 8.75904 5.54336C8.74628 5.55357 8.73608 5.58163 8.73608 5.60969C8.73608 5.6352 8.72587 5.65816 8.71057 5.65816C8.69781 5.65816 8.68506 5.67091 8.68506 5.68622C8.68506 5.70407 8.64169 5.80867 8.58557 5.92346C8.43251 6.24489 8.37894 6.36734 8.37894 6.3954C8.37894 6.4107 8.36873 6.42346 8.35343 6.42346C8.34067 6.42346 8.32792 6.43366 8.32792 6.44642C8.32792 6.47193 8.26669 6.60968 7.92741 7.34182C7.77435 7.6709 7.75394 7.71172 7.73608 7.71937C7.72333 7.72447 7.71567 7.74488 7.71567 7.76529C7.71567 7.78315 7.66465 7.90815 7.60088 8.03825C7.5371 8.1709 7.48608 8.2908 7.48608 8.30866C7.48608 8.32396 7.47588 8.33672 7.46312 8.33672C7.45037 8.33672 7.43251 8.36988 7.42231 8.41325C7.4121 8.45406 7.39425 8.49488 7.38149 8.50253C7.36874 8.51274 7.35853 8.5408 7.35853 8.56886C7.35853 8.59437 7.34833 8.61733 7.33302 8.61733C7.32027 8.61733 7.30751 8.63008 7.30751 8.64539C7.30751 8.66325 7.25394 8.7857 7.19017 8.9209C7.06517 9.18365 6.99119 9.33671 6.82282 9.70151C6.65956 10.0535 6.63149 10.1148 6.50649 10.3826C6.44272 10.5204 6.38915 10.6428 6.38915 10.6581C6.38915 10.6709 6.37894 10.6836 6.36364 10.6836C6.35088 10.6836 6.33813 10.6964 6.33813 10.7117C6.33813 10.7398 6.28456 10.8622 6.1315 11.1836C6.07537 11.2984 6.03201 11.403 6.03201 11.4209C6.03201 11.4362 6.0218 11.449 6.0065 11.449C5.99374 11.449 5.98099 11.4719 5.98099 11.4974C5.98099 11.5255 5.97078 11.5535 5.95803 11.5637C5.94527 11.5714 5.92742 11.6122 5.91721 11.653C5.90701 11.6964 5.88915 11.7296 5.8764 11.7296C5.86364 11.7296 5.85344 11.7398 5.85344 11.7551C5.85344 11.778 5.81262 11.8724 5.58303 12.3597C5.12895 13.3341 5.0116 13.5892 5.0116 13.6199C5.0116 13.6326 5.0014 13.6428 4.98609 13.6428C4.97334 13.6428 4.96058 13.6556 4.96058 13.6709C4.96058 13.6836 4.93507 13.75 4.90701 13.8163C4.83558 13.9719 4.81773 14.1301 4.86109 14.2347C4.87895 14.2806 4.89936 14.3239 4.90956 14.3316C4.95293 14.3699 5.08813 14.5586 5.08813 14.5841C5.08813 14.5995 5.09834 14.6122 5.10854 14.6122C5.13915 14.6122 5.36874 15.0663 5.36874 15.125C5.36874 15.1505 5.3815 15.1785 5.39425 15.1862C5.40956 15.1938 5.41976 15.2244 5.41976 15.25C5.41976 15.278 5.43762 15.352 5.45803 15.4158C5.50395 15.551 5.51415 16.2449 5.47334 16.3801C5.46058 16.426 5.42232 16.5408 5.3917 16.6403C5.36364 16.7372 5.32793 16.829 5.31517 16.8443C5.30242 16.8571 5.29221 16.8877 5.29221 16.9132C5.29221 16.9387 5.28201 16.9591 5.2667 16.9591C5.25395 16.9591 5.24119 16.9719 5.24119 16.9872C5.24119 17.1198 4.67232 17.7653 4.47079 17.8622C4.42997 17.88 4.34069 17.9362 4.32283 17.954C4.30497 17.9719 4.15446 18.0408 4.01671 18.0943C3.95293 18.1198 3.87895 18.1479 3.85089 18.1607C3.67232 18.2397 2.99375 18.2704 2.70294 18.2117C2.26671 18.1249 1.83559 17.8928 1.51927 17.5765C1.3509 17.4081 1.2106 17.2321 1.2106 17.1913C1.2106 17.176 1.20294 17.1632 1.19019 17.1632C1.16978 17.1632 1.15192 17.1301 1.06264 16.9438C1.03203 16.875 0.996311 16.801 0.986107 16.7806C0.958046 16.727 0.889169 16.4897 0.853455 16.329C0.784577 16.0204 0.830496 15.4591 0.950393 15.1352C1.02947 14.9234 1.20294 14.5867 1.26162 14.5357C1.26927 14.528 1.30498 14.4821 1.34325 14.4311C1.43253 14.3137 1.54733 14.1964 1.66468 14.1071C1.7157 14.0688 1.78457 14.0178 1.81519 13.9898C1.90957 13.9081 2.22845 13.7474 2.40957 13.6862C2.47335 13.6658 2.56518 13.6352 2.61365 13.6199C2.66212 13.6046 2.83559 13.5841 2.9963 13.5765C3.39936 13.5561 3.51671 13.5025 3.6264 13.278C3.71314 13.102 3.84579 12.8188 3.95293 12.5842C3.9912 12.5 4.06008 12.3495 4.10854 12.25C4.15701 12.1505 4.19528 12.0561 4.19528 12.0408C4.19528 12.0229 4.20803 12.0102 4.22079 12.0102C4.23609 12.0102 4.2463 11.9974 4.2463 11.9821C4.2463 11.9515 4.29987 11.8291 4.47589 11.4617C4.54222 11.3214 4.63405 11.1301 4.67742 11.0382C4.72079 10.9464 4.7565 10.8571 4.7565 10.8418C4.7565 10.824 4.76926 10.8112 4.78201 10.8112C4.79732 10.8112 4.80752 10.7959 4.80752 10.7806C4.80752 10.7627 4.83558 10.6913 4.86875 10.6199C4.90446 10.551 4.97334 10.403 5.02181 10.2933C5.07283 10.1862 5.15446 10.0076 5.20548 9.89794C5.2565 9.79079 5.33048 9.63263 5.36874 9.54845C5.40701 9.46426 5.48609 9.2959 5.54476 9.17345C5.60344 9.05355 5.64936 8.94131 5.64936 8.926C5.64936 8.9107 5.66211 8.89794 5.67487 8.89794C5.69017 8.89794 5.70038 8.87753 5.70038 8.85202C5.70038 8.82651 5.71823 8.78314 5.73864 8.75508C5.75905 8.72957 5.77691 8.68621 5.77691 8.6607C5.77691 8.63774 5.78966 8.61733 5.80242 8.61733C5.81772 8.61733 5.82793 8.60457 5.82793 8.58927C5.82793 8.57141 5.86874 8.47447 5.91721 8.37243C6.0116 8.17345 6.1417 7.89539 6.2667 7.62243C6.31007 7.5306 6.3815 7.37499 6.42741 7.27805C6.47333 7.17856 6.54476 7.0255 6.58813 6.93366C6.68507 6.72448 6.85853 6.35458 6.95292 6.15305C6.99374 6.06887 7.0269 5.98724 7.0269 5.97193C7.0269 5.95662 7.03455 5.93877 7.04731 5.93367C7.07282 5.92346 7.15445 5.74234 7.15445 5.69642C7.15445 5.67601 7.16466 5.65816 7.17741 5.65816C7.19017 5.65816 7.20802 5.62244 7.21823 5.58163C7.22843 5.53826 7.24629 5.5051 7.25904 5.5051C7.2718 5.5051 7.282 5.48724 7.282 5.46683C7.282 5.44642 7.31006 5.37499 7.34323 5.30612C7.37894 5.23979 7.44782 5.09693 7.49629 4.98724C7.54731 4.8801 7.62894 4.70153 7.67996 4.59183C7.73098 4.48469 7.79476 4.34439 7.82537 4.28061C7.85343 4.21684 7.93251 4.04847 7.99884 3.90816C8.06771 3.76531 8.12384 3.63521 8.12384 3.6199C8.12384 3.60459 8.13659 3.59184 8.14935 3.59184C8.16465 3.59184 8.17486 3.57908 8.17486 3.56378C8.17486 3.53572 8.20802 3.45663 8.33047 3.19388C8.37128 3.1097 8.40445 3.02551 8.40445 3.01021C8.40445 2.99235 8.4172 2.9796 8.42996 2.9796C8.44526 2.9796 8.45547 2.96684 8.45547 2.95408C8.45547 2.93113 8.55751 2.70409 8.74883 2.30358C8.782 2.23215 8.82536 2.13776 8.84322 2.09184C8.86108 2.04848 8.88149 2.01021 8.88914 2.01021C8.89679 2.01021 8.95547 2.06123 9.02179 2.1199ZM7.25904 11.1887C7.37639 11.4438 7.50904 11.727 7.57792 11.8699C7.61108 11.9413 7.63914 12.0127 7.63914 12.0306C7.63914 12.0459 7.6519 12.0612 7.66465 12.0612C7.67996 12.0612 7.69016 12.0739 7.69016 12.0918C7.69016 12.1071 7.72333 12.1913 7.76414 12.2755C7.93251 12.625 7.99629 12.7678 7.99629 12.7959C7.99629 12.8137 8.00904 12.8265 8.0218 12.8265C8.0371 12.8265 8.04731 12.8393 8.04731 12.8546C8.04731 12.8724 8.09322 12.9796 8.14935 13.0969C8.20547 13.2143 8.25139 13.3188 8.25139 13.3316C8.25139 13.3648 8.42486 13.5153 8.46567 13.5153C8.48608 13.5153 8.50904 13.5255 8.51669 13.5357C8.52434 13.5484 8.67485 13.5663 8.85343 13.5739C9.032 13.5816 9.19016 13.602 9.20291 13.6148C9.21822 13.6301 9.25393 13.6428 9.28199 13.6428C9.37128 13.6428 9.87128 13.8469 9.90954 13.8979C9.9172 13.9056 9.94016 13.9209 9.96056 13.9311C10.0218 13.9591 10.0907 14.0076 10.1646 14.0765C10.2029 14.1122 10.2718 14.176 10.3203 14.2193C10.3687 14.2627 10.4299 14.3265 10.458 14.3597C10.5958 14.5255 10.6748 14.6352 10.6748 14.6607C10.6748 14.676 10.6851 14.6887 10.6978 14.6887C10.7106 14.6887 10.731 14.7142 10.7412 14.7449C10.7514 14.778 10.7667 14.8086 10.7743 14.8163C10.7896 14.8265 10.8203 14.9005 10.9044 15.1097C11.1315 15.6683 11.0728 16.4438 10.7616 17.0229C10.6417 17.25 10.5549 17.3622 10.3356 17.5816C10.1672 17.7474 9.80495 18.005 9.73863 18.005C9.72077 18.005 9.70546 18.0153 9.70546 18.028C9.70546 18.0408 9.67995 18.0561 9.64934 18.0637C9.61618 18.0714 9.52689 18.0994 9.45036 18.13C9.22842 18.2117 9.02689 18.2423 8.69781 18.2423C8.36873 18.2423 8.16975 18.2117 7.94527 18.13C7.86873 18.102 7.782 18.0714 7.75394 18.0637C7.72588 18.0535 7.60088 17.9846 7.47333 17.9056C7.08813 17.6683 6.73353 17.2704 6.57027 16.8954C6.53966 16.8239 6.50649 16.75 6.49374 16.7295C6.47333 16.6913 6.41976 16.4744 6.36109 16.1887C6.32282 16.0076 6.36109 15.5637 6.44017 15.2627C6.49374 15.0612 6.66466 14.7193 6.81517 14.5153C6.8917 14.4132 6.97078 14.2984 6.99119 14.2602C7.04476 14.153 7.03455 13.9898 6.96058 13.8265C6.86619 13.6148 6.75139 13.3724 6.66976 13.1964C6.62894 13.1122 6.54986 12.9413 6.49119 12.8188L6.3866 12.5944L6.46568 12.4285C6.50649 12.3393 6.54221 12.2525 6.54221 12.2398C6.54221 12.2245 6.55241 12.2143 6.56517 12.2143C6.57792 12.2143 6.59578 12.1811 6.60598 12.1377C6.61619 12.0969 6.63405 12.0561 6.6468 12.0484C6.65956 12.0382 6.66976 12.0102 6.66976 11.9821C6.66976 11.9566 6.67996 11.9336 6.69272 11.9336C6.70547 11.9336 6.72333 11.8979 6.73353 11.8571C6.74374 11.8137 6.7616 11.7806 6.77435 11.7806C6.78711 11.7806 6.79731 11.7653 6.79731 11.7449C6.79731 11.7245 6.82537 11.653 6.85853 11.5842C6.95802 11.3852 7.0269 11.2245 7.0269 11.1964C7.0269 11.1811 7.03711 11.1683 7.04731 11.1683C7.05751 11.1683 7.08302 11.1275 7.10088 11.0791C7.11874 11.0306 7.14425 10.9949 7.157 11.0051C7.17231 11.0127 7.21823 11.0969 7.25904 11.1887ZM5.99884 13.7194C6.0167 13.7551 6.05497 13.8392 6.08303 13.9081L6.13915 14.0306L6.04221 14.1709C5.93762 14.3214 5.90446 14.352 5.90446 14.2959C5.90446 14.2755 5.8968 14.2551 5.8866 14.25C5.87384 14.2449 5.83558 14.1938 5.79476 14.1326L5.72333 14.0255L5.81517 13.8367C5.86364 13.7347 5.90446 13.6352 5.90446 13.6199C5.90446 13.5765 5.95803 13.6352 5.99884 13.7194Z" fill="#666666"/>
<path d="M2.80744 14.4317C2.79978 14.4444 2.74876 14.4623 2.69774 14.4725C2.5957 14.4904 2.39673 14.5899 2.28448 14.6766C2.05489 14.8501 1.77173 15.22 1.77173 15.3399C1.77173 15.3603 1.76152 15.3781 1.75132 15.3781C1.72326 15.3781 1.66459 15.6562 1.65183 15.8552C1.63908 16.0414 1.7003 16.3577 1.78448 16.5261C1.98091 16.9291 2.25132 17.174 2.67734 17.3449C2.86611 17.4189 3.20795 17.4419 3.44774 17.3934C3.5957 17.3654 3.81509 17.2939 3.83805 17.2684C3.8457 17.2582 3.89417 17.2302 3.94774 17.2046C4.04213 17.1562 4.28447 16.9368 4.38651 16.8067C4.45284 16.7199 4.59059 16.4393 4.63141 16.2965C4.67733 16.1485 4.67733 15.5694 4.63396 15.5261C4.6161 15.5082 4.60335 15.4751 4.60335 15.447C4.60335 15.3858 4.47325 15.123 4.38141 15.0031C4.19519 14.7531 3.93243 14.5694 3.61611 14.4623C3.48856 14.4189 3.39417 14.4087 3.13907 14.4087C2.96305 14.4087 2.81509 14.4189 2.80744 14.4317ZM3.50386 15.3118C3.66203 15.4113 3.70029 15.4521 3.77427 15.595C3.86611 15.7659 3.87121 16.0439 3.78448 16.2123C3.66968 16.4342 3.40182 16.6026 3.16203 16.6026C3.05489 16.6026 2.81764 16.5312 2.81764 16.498C2.81764 16.4853 2.80489 16.4751 2.78703 16.4751C2.77172 16.4751 2.7105 16.4215 2.65183 16.3577C2.43499 16.123 2.42224 15.7582 2.62377 15.4878C2.67223 15.4215 2.76152 15.3501 2.85591 15.3016C2.99621 15.2276 3.02427 15.2225 3.20029 15.2302C3.35335 15.2404 3.41458 15.2557 3.50386 15.3118Z" fill="#666666"/>
<path d="M8.34329 14.4308C8.33563 14.4436 8.28972 14.4614 8.24125 14.4691C8.07033 14.5022 7.83819 14.6425 7.63666 14.839C7.52441 14.9436 7.43513 15.043 7.43513 15.0584C7.43513 15.0711 7.39941 15.1349 7.3586 15.1987C7.31778 15.2624 7.28207 15.3364 7.28207 15.3645C7.28207 15.3951 7.27186 15.4283 7.25911 15.441C7.24635 15.4563 7.22339 15.5584 7.20554 15.6706C7.13666 16.1808 7.27952 16.6196 7.63155 16.9742C7.90196 17.2446 8.15196 17.3568 8.65451 17.4282C8.77441 17.4461 9.15961 17.3619 9.32288 17.2828C9.41471 17.2395 9.49379 17.1936 9.49634 17.1833C9.50145 17.1706 9.5193 17.1629 9.53461 17.1629C9.57798 17.1629 9.81522 16.9384 9.91726 16.8032C10.0091 16.6782 10.078 16.543 10.152 16.3364C10.2132 16.168 10.2132 15.64 10.1545 15.4997C10.1315 15.4461 10.1137 15.3798 10.1137 15.3517C10.1137 15.3237 10.1035 15.3007 10.0882 15.3007C10.0754 15.3007 10.0627 15.2879 10.0627 15.2726C10.0627 15.2191 9.8892 14.9563 9.78971 14.8619C9.629 14.7038 9.54226 14.6374 9.48359 14.6221C9.45043 14.6119 9.42492 14.5992 9.42492 14.589C9.42492 14.5635 9.25145 14.4895 9.14941 14.4691C9.10349 14.4589 9.06012 14.441 9.05247 14.4308C9.03461 14.4002 8.36114 14.4002 8.34329 14.4308ZM8.94533 15.2675C9.00655 15.2905 9.08308 15.3364 9.11879 15.3696C9.15451 15.4027 9.19022 15.4283 9.20043 15.4283C9.21318 15.4283 9.22083 15.4461 9.22083 15.4665C9.22083 15.4869 9.22849 15.5048 9.24124 15.5048C9.25145 15.5048 9.28206 15.5481 9.31012 15.5992C9.35094 15.6731 9.36114 15.742 9.36114 15.9308C9.36114 16.0762 9.34839 16.1782 9.33308 16.1885C9.31777 16.1987 9.29736 16.2318 9.28716 16.2624C9.27696 16.2956 9.25655 16.3211 9.24379 16.3211C9.23104 16.3211 9.22083 16.3364 9.22083 16.3517C9.21828 16.3976 9.04737 16.515 8.91216 16.5609C8.78971 16.6043 8.54482 16.6145 8.52186 16.5788C8.5142 16.5686 8.47339 16.5507 8.43257 16.543C8.35604 16.5277 8.16217 16.3568 8.09584 16.2446C8.07288 16.2089 8.04227 16.1145 8.02186 16.0354C7.9938 15.9155 7.9938 15.8696 8.02186 15.7675C8.07033 15.5966 8.16472 15.4538 8.30757 15.339C8.44533 15.2267 8.7591 15.1936 8.94533 15.2675Z" fill="#666666"/>
</svg>
