<svg width="24" height="24" viewBox="0 0 24 24" fill="none" xmlns="http://www.w3.org/2000/svg">
<mask id="mask0_1888_8819" style="mask-type:alpha" maskUnits="userSpaceOnUse" x="0" y="0" width="24" height="24">
<rect width="24" height="24" fill="#C4C4C4"/>
</mask>
<g mask="url(#mask0_1888_8819)">
<path d="M11.79 8.23242C9.69999 8.23242 8 9.93242 8 12.0224C8 14.1124 9.69999 15.8124 11.79 15.8124C13.88 15.8124 15.58 14.1124 15.58 12.0224C15.58 9.93242 13.88 8.23242 11.79 8.23242ZM11.79 14.3124C10.528 14.3124 9.5 13.2864 9.5 12.0224C9.5 10.7584 10.53 9.73242 11.79 9.73242C13.05 9.73242 14.08 10.7584 14.08 12.0224C14.08 13.2864 13.052 14.3124 11.79 14.3124Z" fill="#1C293E"/>
<path d="M11.737 22.75H11.015C9.832 22.75 8.86101 21.862 8.75301 20.686L8.739 20.539C8.714 20.252 8.532 20.006 8.267 19.895C7.981 19.775 7.68499 19.83 7.46899 20.01L7.353 20.107C6.485 20.832 5.1 20.77 4.293 19.967L3.783 19.457C2.947 18.617 2.88701 17.303 3.64301 16.397L3.741 16.279C3.927 16.057 3.97099 15.756 3.86299 15.492C3.75299 15.22 3.505 15.038 3.217 15.012L3.067 14.998C1.887 14.891 1 13.918 1 12.736V12.014C1 10.831 1.888 9.86 3.064 9.752L3.22 9.738C3.505 9.713 3.75 9.531 3.862 9.265C3.972 8.995 3.927 8.692 3.742 8.47L3.64799 8.354C2.891 7.446 2.95 6.131 3.785 5.294L4.297 4.782C5.101 3.978 6.48499 3.917 7.35699 4.642L7.47299 4.74C7.69099 4.924 8.001 4.97 8.263 4.862C8.533 4.75 8.71501 4.504 8.74001 4.219L8.754 4.066C8.861 2.886 9.83401 2 11.016 2H11.738C12.921 2 13.892 2.888 14 4.064L14.014 4.22C14.039 4.505 14.22 4.75 14.486 4.86C14.763 4.977 15.066 4.922 15.28 4.743L15.4 4.641C16.267 3.918 17.654 3.979 18.46 4.781L18.97 5.293C19.806 6.131 19.866 7.446 19.11 8.353L19.01 8.471C18.822 8.691 18.776 8.993 18.887 9.259C18.999 9.529 19.247 9.709 19.533 9.737L19.685 9.751C20.865 9.858 21.752 10.831 21.752 12.013V12.736C21.752 13.919 20.864 14.89 19.688 14.998L19.533 15.012C19.249 15.036 19.003 15.217 18.893 15.482C18.78 15.754 18.826 16.056 19.01 16.277L19.11 16.397C19.866 17.302 19.806 18.617 18.97 19.457L18.46 19.967C17.653 20.771 16.27 20.831 15.4 20.107L15.285 20.011C15.068 19.828 14.755 19.781 14.495 19.889C14.222 20.003 14.04 20.249 14.015 20.535L14.001 20.685C13.894 21.858 12.921 22.745 11.739 22.745L11.737 22.75ZM7.964 18.33C8.264 18.33 8.557 18.39 8.834 18.505C9.624 18.833 10.158 19.559 10.234 20.401L10.248 20.548C10.285 20.948 10.615 21.248 11.018 21.248H11.74C12.14 21.248 12.47 20.948 12.508 20.548L12.522 20.4C12.598 19.558 13.132 18.833 13.914 18.508C14.707 18.178 15.61 18.326 16.247 18.858L16.36 18.952C16.538 19.1 16.726 19.132 16.853 19.132C17.059 19.132 17.253 19.052 17.399 18.905L17.909 18.395C18.193 18.111 18.214 17.665 17.957 17.357L17.857 17.237C17.315 16.587 17.18 15.697 17.505 14.914C17.831 14.124 18.557 13.594 19.399 13.517L19.554 13.503C19.951 13.466 20.254 13.136 20.254 12.733V12.011C20.254 11.611 19.951 11.281 19.552 11.243L19.4 11.229C18.554 11.151 17.83 10.619 17.505 9.836C17.179 9.048 17.315 8.158 17.858 7.509L17.958 7.391C18.215 7.081 18.194 6.635 17.91 6.351L17.4 5.841C17.254 5.694 17.06 5.614 16.854 5.614C16.727 5.614 16.539 5.646 16.362 5.794L16.242 5.894C15.608 6.422 14.692 6.564 13.92 6.248C13.132 5.921 12.6 5.196 12.523 4.352L12.509 4.197C12.474 3.8 12.144 3.497 11.742 3.497H11.019C10.619 3.497 10.289 3.8 10.251 4.199L10.237 4.351C10.161 5.194 9.629 5.919 8.847 6.244C8.06 6.57 7.154 6.427 6.517 5.894L6.399 5.798C6.219 5.648 6.03099 5.618 5.90399 5.618C5.69799 5.618 5.504 5.698 5.358 5.844L4.84599 6.354C4.56399 6.638 4.543 7.084 4.8 7.392L4.89999 7.51C5.43999 8.163 5.577 9.054 5.252 9.835C4.925 10.623 4.19999 11.155 3.35699 11.232L3.201 11.246C2.804 11.283 2.50099 11.613 2.50099 12.016V12.738C2.50099 13.138 2.804 13.468 3.203 13.506L3.353 13.52C4.201 13.598 4.926 14.132 5.25 14.916C5.575 15.702 5.44 16.591 4.897 17.241L4.80099 17.356C4.54099 17.666 4.563 18.112 4.847 18.396L5.35699 18.906C5.50299 19.053 5.697 19.133 5.903 19.133C6.03 19.133 6.218 19.103 6.395 18.953L6.511 18.857C6.917 18.521 7.434 18.333 7.964 18.333V18.33Z" fill="#1C293E"/>
</g>
</svg>
