<svg width="16" height="16" viewBox="0 0 16 16" fill="none" xmlns="http://www.w3.org/2000/svg">
<path d="M9.82995 2.40257L10.3249 3.90257C10.5486 4.59683 11.193 5.06881 11.9224 5.07257H13.4824C14.2141 5.06792 14.8646 5.5373 15.0908 6.23309C15.317 6.92888 15.0669 7.69107 14.4724 8.11757L13.1899 9.04757C12.5996 9.47616 12.3515 10.2356 12.5749 10.9301L13.0699 12.4301C13.3148 13.1269 13.0758 13.9019 12.481 14.3398C11.8862 14.7777 11.0751 14.7758 10.4824 14.3351L9.22245 13.3976C8.6318 12.9697 7.8331 12.9697 7.24245 13.3976L5.98245 14.3351C5.39305 14.7665 4.59247 14.7676 4.00184 14.3379C3.41122 13.9082 3.16591 13.1461 3.39495 12.4526L3.88995 10.9526C4.11342 10.2581 3.86531 9.49866 3.27495 9.07007L1.96245 8.12507C1.35592 7.69769 1.10158 6.92304 1.33673 6.21931C1.57188 5.51559 2.24083 5.04946 2.98245 5.07257H4.54245C5.26785 5.07094 5.91104 4.6059 6.13995 3.91757L6.63495 2.41757C6.85685 1.72472 7.49949 1.25343 8.227 1.25002C8.95451 1.2466 9.60154 1.71184 9.82995 2.40257Z" stroke="black" stroke-width="1.5"/>
</svg>
