<svg width="15" height="14" viewBox="0 0 15 14" fill="none" xmlns="http://www.w3.org/2000/svg">
<path d="M8.82995 1.40257L9.32495 2.90257C9.54862 3.59683 10.193 4.06881 10.9224 4.07257H12.4824C13.2141 4.06792 13.8646 4.5373 14.0908 5.23309C14.317 5.92888 14.0669 6.69107 13.4724 7.11757L12.1899 8.04757C11.5996 8.47616 11.3515 9.2356 11.5749 9.93007L12.0699 11.4301C12.3148 12.1269 12.0758 12.9019 11.481 13.3398C10.8862 13.7777 10.0751 13.7758 9.48245 13.3351L8.22245 12.3976C7.6318 11.9697 6.8331 11.9697 6.24245 12.3976L4.98245 13.3351C4.39305 13.7664 3.59247 13.7676 3.00184 13.3379C2.41122 12.9082 2.16591 12.1461 2.39495 11.4526L2.88995 9.95257C3.11342 9.2581 2.86531 8.49866 2.27495 8.07007L0.962446 7.12507C0.35592 6.69769 0.101579 5.92304 0.336731 5.21931C0.571883 4.51559 1.24083 4.04946 1.98245 4.07257H3.54245C4.26785 4.07094 4.91104 3.6059 5.13995 2.91757L5.63495 1.41757C5.85685 0.724722 6.49949 0.253434 7.227 0.250019C7.95451 0.246603 8.60154 0.711836 8.82995 1.40257Z" fill="black"/>
</svg>
