<svg width="24" height="24" viewBox="0 0 24 24" fill="none" xmlns="http://www.w3.org/2000/svg">
<path d="M15.0499 2.67094L15.8749 5.17094C16.2477 6.32805 17.3217 7.11468 18.5374 7.12094H21.1374C22.3568 7.1132 23.441 7.8955 23.818 9.05515C24.195 10.2148 23.7782 11.4851 22.7874 12.1959L20.6499 13.7459C19.666 14.4603 19.2525 15.726 19.6249 16.8834L20.4499 19.3834C20.858 20.5449 20.4596 21.8365 19.4683 22.5664C18.477 23.2962 17.1252 23.293 16.1374 22.5584L14.0374 20.9959C13.053 20.2828 11.7218 20.2828 10.7374 20.9959L8.63741 22.5584C7.65509 23.2774 6.32078 23.2793 5.33641 22.5632C4.35204 21.847 3.94318 20.5769 4.32491 19.4209L5.14991 16.9209C5.52236 15.7635 5.10886 14.4978 4.12491 13.7834L1.93741 12.2084C0.926533 11.4961 0.502632 10.2051 0.894552 9.03219C1.28647 7.85931 2.40139 7.08243 3.63741 7.12094H6.23741C7.44641 7.11823 8.51841 6.34317 8.89991 5.19594L9.72491 2.69594C10.0948 1.5412 11.1658 0.755724 12.3783 0.750031C13.5908 0.744339 14.6692 1.51973 15.0499 2.67094Z" fill="#FE7B1E"/>
</svg>
